<?xml version="1.0" encoding="UTF-8"?>
<svg version="1.1" xmlns="http://www.w3.org/2000/svg" width="400" height="400">
<path d="M0 0 C1.36705078 1.299375 1.36705078 1.299375 2.76171875 2.625 C5.26817866 5.02048913 5.26817866 5.02048913 7.9453125 7.09375 C11.5523658 9.99843978 14.33363533 13.47056696 17.3125 17 C18.07820313 17.87785156 18.84390625 18.75570312 19.6328125 19.66015625 C52.18644475 57.57136121 69.22079512 108.49326613 66.015625 158.40234375 C63.97018304 184.95265612 58.04619228 210.02222132 46.3125 234 C45.96316406 234.71784668 45.61382812 235.43569336 45.25390625 236.17529297 C37.28634962 252.3475359 27.22040896 266.51284092 15.3125 280 C14.590625 280.84433594 13.86875 281.68867188 13.125 282.55859375 C8.8522051 287.50735816 4.32770186 291.81628885 -0.6875 296 C-1.99654297 297.14082031 -1.99654297 297.14082031 -3.33203125 298.3046875 C-42.31361571 331.80693278 -93.65141276 347.66184947 -144.75854492 344.60131836 C-180.77072925 341.87681866 -215.23383727 329.9940626 -244.6875 309 C-245.27176758 308.58395508 -245.85603516 308.16791016 -246.45800781 307.73925781 C-255.13670969 301.47489429 -262.96332885 294.38742254 -270.6875 287 C-271.36554688 286.36320312 -272.04359375 285.72640625 -272.7421875 285.0703125 C-286.35316412 271.96112304 -296.99417861 255.67381432 -305.6875 239 C-306.03022949 238.34725098 -306.37295898 237.69450195 -306.72607422 237.02197266 C-316.10517984 218.89681737 -322.41950281 199.1289037 -325.6875 179 C-325.80319336 178.30374512 -325.91888672 177.60749023 -326.03808594 176.89013672 C-330.61374009 147.94946363 -327.93623898 118.00387109 -319.6875 90 C-319.48318359 89.30310059 -319.27886719 88.60620117 -319.06835938 87.88818359 C-313.16926769 68.39777193 -303.82482955 49.34323777 -291.6875 33 C-291.08905273 32.17483887 -291.08905273 32.17483887 -290.47851562 31.33300781 C-284.16085964 22.63987248 -277.10283145 14.76541148 -269.6875 7 C-269.08550781 6.34515625 -268.48351562 5.6903125 -267.86328125 5.015625 C-235.47158725 -29.25266588 -185.02036448 -47.89272314 -138.78222656 -49.9140625 C-87.94657751 -51.32571826 -37.5623921 -34.83251556 0 0 Z " fill="#5267FC" transform="translate(330.6875,53)"/>
<path d="M0 0 C21.59675989 51.07601672 27.43414973 105.58842258 7.09326172 158.35205078 C4.92766621 163.6643341 2.52106404 168.84821026 0 174 C-0.34933594 174.71784668 -0.69867188 175.43569336 -1.05859375 176.17529297 C-9.02615038 192.3475359 -19.09209104 206.51284092 -31 220 C-32.0828125 221.26650391 -32.0828125 221.26650391 -33.1875 222.55859375 C-37.4602949 227.50735816 -41.98479814 231.81628885 -47 236 C-47.87269531 236.76054687 -48.74539063 237.52109375 -49.64453125 238.3046875 C-88.62611571 271.80693278 -139.96391276 287.66184947 -191.07104492 284.60131836 C-227.08322925 281.87681866 -261.54633727 269.9940626 -291 249 C-291.58426758 248.58395508 -292.16853516 248.16791016 -292.77050781 247.73925781 C-301.44920969 241.47489429 -309.27582885 234.38742254 -317 227 C-317.67804688 226.36320313 -318.35609375 225.72640625 -319.0546875 225.0703125 C-331.13281731 213.43745937 -342.63055611 198.15372403 -350 183 C-350 180 -350 180 -348.70922852 178.68823242 C-347.80321899 178.0285144 -347.80321899 178.0285144 -346.87890625 177.35546875 C-345.85941895 176.59810425 -345.85941895 176.59810425 -344.81933594 175.82543945 C-343.70220215 175.01465942 -343.70220215 175.01465942 -342.5625 174.1875 C-340.99399582 173.02104492 -339.42765028 171.85168253 -337.86328125 170.6796875 C-337.05584473 170.07479492 -336.2484082 169.46990234 -335.41650391 168.84667969 C-331.60925747 165.93720181 -327.92910736 162.88136878 -324.25 159.8125 C-318.36619413 154.91890538 -312.40109129 150.19071735 -306.30859375 145.55859375 C-302.47381883 142.61926034 -298.73952574 139.5589675 -295 136.5 C-290.19828472 132.57381116 -285.37008807 128.69816923 -280.4375 124.9375 C-275.76317404 121.37116242 -271.14666279 117.74393535 -266.5625 114.0625 C-261.13839398 109.70652562 -255.69749522 105.37419695 -250.21484375 101.09204102 C-247.20866473 98.74325064 -244.22081453 96.37577532 -241.2578125 93.97265625 C-240.32980835 93.22640991 -240.32980835 93.22640991 -239.38305664 92.46508789 C-238.21042743 91.5214178 -237.04253498 90.57181571 -235.88061523 89.61499023 C-230.65464753 85.43060816 -225.41859574 82.57270059 -218.625 82.5625 C-217.77164063 82.54316406 -216.91828125 82.52382812 -216.0390625 82.50390625 C-207.32485183 83.92640594 -199.50017719 89.43139914 -192 93.8125 C-190.88020752 94.46178467 -189.76041504 95.11106934 -188.60668945 95.7800293 C-179.34292136 101.16214894 -170.15573706 106.67130682 -161.00976562 112.2512207 C-160.03072266 112.84507568 -159.05167969 113.43893066 -158.04296875 114.05078125 C-157.18727295 114.57325439 -156.33157715 115.09572754 -155.44995117 115.6340332 C-150.99101257 118.12010809 -147.36641119 119.3073226 -142.25 119.375 C-141.28578125 119.40335937 -140.3215625 119.43171875 -139.328125 119.4609375 C-130.55695341 118.24615083 -124.85765244 113.59040731 -118.75 107.5 C-117.26095726 106.05673372 -115.77136893 104.61403012 -114.28125 103.171875 C-113.55550781 102.46224609 -112.82976562 101.75261719 -112.08203125 101.02148438 C-109.18672599 98.21037654 -106.22612717 95.47498493 -103.25 92.75 C-102.20039022 91.78399606 -101.15090985 90.8178515 -100.1015625 89.8515625 C-99.59012695 89.38137695 -99.07869141 88.91119141 -98.55175781 88.42675781 C-95.90725432 85.99527914 -93.2656591 83.56065266 -90.625 81.125 C-90.09430908 80.63555908 -89.56361816 80.14611816 -89.0168457 79.6418457 C-84.80871774 75.75640181 -80.6213322 71.84907469 -76.4375 67.9375 C-70.96985479 62.8263798 -65.47227841 57.75034808 -59.94921875 52.69921875 C-52.07122594 45.48902931 -44.2387656 38.23059156 -36.4375 30.9375 C-31.01017268 25.8637085 -25.55666748 20.82179649 -20.0625 15.8203125 C-17.76420855 13.71810544 -15.50277151 11.58058063 -13.25 9.4296875 C-12.61586182 8.82842041 -11.98172363 8.22715332 -11.32836914 7.60766602 C-10.08997532 6.43195139 -8.85714731 5.25033969 -7.63061523 4.06225586 C-3.33605394 0 -3.33605394 0 0 0 Z " fill="#08F0B9" transform="translate(377,113)"/>
</svg>
